<?xml version="1.0" encoding="UTF-8" standalone="no"?>
<!-- Created with Inkscape (http://www.inkscape.org/) -->

<svg
   width="210mm"
   height="297mm"
   viewBox="0 0 210 297"
   version="1.1"
   id="svg1"
   xml:space="preserve"
   inkscape:version="1.3.2 (091e20e, 2023-11-25)"
   sodipodi:docname="VinoVeritas-Logo copy.svg"
   inkscape:export-filename="..\Pictures\VinoVeritas.png"
   inkscape:export-xdpi="96"
   inkscape:export-ydpi="96"
   xmlns:inkscape="http://www.inkscape.org/namespaces/inkscape"
   xmlns:sodipodi="http://sodipodi.sourceforge.net/DTD/sodipodi-0.dtd"
   xmlns="http://www.w3.org/2000/svg"
   xmlns:svg="http://www.w3.org/2000/svg"><sodipodi:namedview
     id="namedview1"
     pagecolor="#ffffff"
     bordercolor="#000000"
     borderopacity="0.25"
     inkscape:showpageshadow="2"
     inkscape:pageopacity="0.0"
     inkscape:pagecheckerboard="0"
     inkscape:deskcolor="#d1d1d1"
     inkscape:document-units="mm"
     inkscape:zoom="1.1361552"
     inkscape:cx="148.3072"
     inkscape:cy="488.4896"
     inkscape:window-width="1728"
     inkscape:window-height="1057"
     inkscape:window-x="0"
     inkscape:window-y="32"
     inkscape:window-maximized="0"
     inkscape:current-layer="layer1"
     showguides="true" /><defs
     id="defs1" /><g
     inkscape:label="Ebene 1"
     inkscape:groupmode="layer"
     id="layer1"><path
       style="display:inline;fill:#000000;fill-opacity:1;stroke:#000000;stroke-width:4.70361;stroke-linecap:round;stroke-linejoin:round;stroke-miterlimit:0;stroke-dasharray:none;stroke-opacity:1;paint-order:stroke fill markers"
       d="m 73.739814,198.37704 4.280616,-0.0354"
       id="path14"
       sodipodi:nodetypes="cc" /><path
       style="display:inline;fill:#000000;fill-opacity:1;stroke:none;stroke-width:0.247559;stroke-linecap:round;stroke-linejoin:round;stroke-miterlimit:0;stroke-dasharray:none;stroke-opacity:1;paint-order:stroke fill markers"
       d="m 121.45022,169.9829 c 0,0 -7.6922,-0.0124 -7.6922,6.86669 2.12289,0 3.527,0.0854 4.63997,-0.6547 2.97778,-1.97985 3.05223,-6.21199 3.05223,-6.21199 z"
       id="path15"
       sodipodi:nodetypes="ccsc" /><rect
       style="display:inline;fill:#000000;fill-opacity:1;stroke:none;stroke-width:0.25859;stroke-linecap:round;stroke-linejoin:round;stroke-miterlimit:0;stroke-dasharray:none;stroke-opacity:1;paint-order:stroke fill markers"
       id="rect15"
       width="9.3711185"
       height="7.8336205"
       x="98.451286"
       y="191.04843" /><path
       style="display:inline;fill:#820000;fill-opacity:1;stroke:#820000;stroke-width:0.247559;stroke-linecap:round;stroke-linejoin:round;stroke-miterlimit:0;stroke-dasharray:none;stroke-opacity:1;paint-order:stroke fill markers"
       d="m 120.54338,112.48493 c 0,0 0.01,-0.002 0.0272,5.4e-4 0.82616,0.13765 3.96381,0.40469 3.27503,10.21128 0,0 -1.22814,18.7698 -20.28449,18.7698 0,0 -15.198707,0.18096 -19.716561,-13.49504 -0.846844,-2.56352 -1.128541,-4.89387 -1.00132,-7.14123 0.112787,-1.99228 0.699447,-4.20778 1.343852,-5.81344 0.0324,-0.0817 0.07872,-0.15423 0.12274,-0.22801 1.586695,-2.65348 10.266272,0.81732 10.266272,0.81732 3.792824,1.30733 11.169357,0.70601 11.169357,0.70601 6.99302,-0.54799 12.36466,-3.38363 12.36466,-3.38363 1.24399,-0.644 2.43333,-0.4437 2.43333,-0.4437 z"
       id="path16"
       sodipodi:nodetypes="cssscccsccccc" /><path
       style="display:inline;fill:none;stroke:#000000;stroke-width:4.70361;stroke-linecap:round;stroke-linejoin:round;stroke-miterlimit:0;stroke-dasharray:none;stroke-opacity:1;paint-order:stroke fill markers"
       d="m 105.50991,152.28506 c -1.86692,5.45099 -2.28045,15.02186 -2.20768,24.03691 0.0494,6.12291 1.23528,21.99432 10.35579,22.03358"
       id="path3"
       sodipodi:nodetypes="csc" /><path
       style="display:inline;fill:none;stroke:#000000;stroke-width:4.70361;stroke-linecap:round;stroke-linejoin:round;stroke-miterlimit:0;stroke-dasharray:none;stroke-opacity:1;paint-order:stroke fill markers"
       d="m 100.85737,152.28506 c 1.86691,5.45099 2.28044,15.02186 2.20768,24.03691 -0.0494,6.12291 -1.23528,21.99432 -10.355794,22.03358"
       id="path10"
       sodipodi:nodetypes="csc" /><path
       style="fill:#000000;fill-opacity:1;stroke:none;stroke-width:0.247559;stroke-linecap:round;stroke-linejoin:round;stroke-miterlimit:0;stroke-dasharray:none;stroke-opacity:1;paint-order:stroke fill markers"
       d="m 121.66007,188.04595 c 0,0 -7.6922,0.0124 -7.6922,-6.86669 2.12289,0 3.527,-0.0854 4.63998,0.6547 2.97778,1.97985 3.05222,6.21199 3.05222,6.21199 z"
       id="path15-6"
       sodipodi:nodetypes="ccsc"
       inkscape:label="path15" /><path
       style="fill:none;stroke:#000000;stroke-width:4.70361;stroke-linecap:round;stroke-linejoin:round;stroke-miterlimit:0;stroke-dasharray:none;stroke-opacity:1;paint-order:stroke fill markers"
       d="m 105.50991,152.28506 c -1.86692,5.45099 -2.28045,15.02186 -2.20768,24.03691 0.0494,6.12291 1.23528,21.99432 10.35579,22.03358"
       id="path12-1"
       sodipodi:nodetypes="csc"
       inkscape:label="path12" /><path
       style="fill:none;stroke:#000000;stroke-width:4.70361;stroke-linecap:round;stroke-linejoin:round;stroke-miterlimit:0;stroke-dasharray:none;stroke-opacity:1;paint-order:stroke fill markers"
       d="m 73.821488,116.39792 c -1.901161,33.62052 29.267882,34.27093 29.267882,34.27093"
       id="path4"
       sodipodi:nodetypes="cc" /><path
       style="fill:none;stroke:#000000;stroke-width:4.70361;stroke-linecap:round;stroke-linejoin:round;stroke-miterlimit:0;stroke-dasharray:none;stroke-opacity:1;paint-order:stroke fill markers"
       d="m 132.80962,117.39828 c 0.1057,29.33748 -22.43867,33.47027 -29.72025,33.27057"
       id="path5"
       sodipodi:nodetypes="cc" /><circle
       id="path6"
       style="fill:#000000;stroke:#820000;stroke-width:0.654998;stroke-opacity:1"
       cx="73.749573"
       cy="116.47221"
       r="0.016919307" /><circle
       id="path7"
       style="fill:#000000;stroke:#820000;stroke-width:0.654998;stroke-opacity:1"
       cx="73.873398"
       cy="116.17149"
       r="0.016919307" /><circle
       id="path8"
       style="fill:#000000;stroke:#820000;stroke-width:0.654998;stroke-opacity:1"
       cx="73.873398"
       cy="116.17149"
       r="0.016919307" /><path
       style="fill:none;stroke:#000000;stroke-width:4.70361;stroke-linecap:round;stroke-linejoin:round;stroke-miterlimit:0;stroke-dasharray:none;stroke-opacity:1;paint-order:stroke fill markers"
       d="m 73.855701,116.09188 c 0.672436,-9.71702 5.854356,-22.128222 8.746158,-33.214441 l 41.150131,-0.150095 c 3.04354,11.348599 8.12871,20.605716 9.07751,34.346506"
       id="path9"
       sodipodi:nodetypes="cccc" /><path
       style="fill:#000000;fill-opacity:0;stroke:#820000;stroke-width:0.30452;stroke-opacity:1"
       d="m 101.10022,141.10856 c -9.003579,-1.28538 -15.462969,-6.73015 -17.518352,-14.76662 -0.673479,-2.63328 -0.764064,-5.29333 -0.264901,-7.77885 l 0.33561,-1.67112 0.859042,0.85904 c 1.740802,1.7408 4.783622,0.84614 5.523727,-1.6241 0.203423,-0.67897 0.546823,-1.30239 0.763112,-1.38539 0.216288,-0.083 1.457883,0.22701 2.759098,0.68891 2.110375,0.74912 2.896892,0.85482 7.283644,0.97891 5.87378,0.16615 9.23189,-0.30802 13.71496,-1.93654 1.64344,-0.59701 3.56318,-1.29453 4.2661,-1.55006 3.40182,-1.23667 5.24575,2.01503 4.86555,8.58024 -0.21526,3.71707 -0.78136,5.90775 -2.40011,9.28782 -1.61427,3.37072 -5.11949,6.97167 -8.24004,8.46507 -3.44035,1.64645 -8.21059,2.38617 -11.94744,1.85269 z"
       id="path11" /><path
       style="fill:none;stroke:#000000;stroke-width:4.70361;stroke-linecap:round;stroke-linejoin:round;stroke-miterlimit:0;stroke-dasharray:none;stroke-opacity:1;paint-order:stroke fill markers"
       d="m 105.50991,152.28506 c -1.86692,5.45099 -2.28045,15.02186 -2.20768,24.03691 0.0494,6.12291 1.23528,21.99432 10.35579,22.03358"
       id="path12"
       sodipodi:nodetypes="csc"
       inkscape:label="path12" /><path
       style="fill:none;stroke:#000000;stroke-width:4.70361;stroke-linecap:round;stroke-linejoin:round;stroke-miterlimit:0;stroke-dasharray:none;stroke-opacity:1;paint-order:stroke fill markers"
       d="m 129.94431,198.36867 c -14.0221,0 -29.26469,-0.0191 -46.284367,-0.0191"
       id="path19"
       sodipodi:nodetypes="cc"
       inkscape:label="path12" /><path
       style="fill:none;stroke:#000000;stroke-width:4.70361;stroke-linecap:round;stroke-linejoin:round;stroke-miterlimit:0;stroke-dasharray:none;stroke-opacity:1;paint-order:stroke fill markers"
       d="m 77.828379,198.36867 c -3.273189,0 -1.252377,-0.0191 -4.103035,-0.0191"
       id="path20"
       sodipodi:nodetypes="cc"
       inkscape:label="path12" /><path
       style="fill:none;stroke:#bbbbbb;stroke-width:6.104;stroke-linecap:round;stroke-linejoin:round;stroke-miterlimit:0;stroke-dasharray:none;stroke-opacity:1;paint-order:stroke fill markers"
       d="m 87.029558,114.98916 c 1.70199,-4.58242 2.637547,-7.7985 4.077692,-11.82746"
       id="path21"
       sodipodi:nodetypes="cc"
       inkscape:label="path12" /><path
       style="fill:none;stroke:#bbbbbb;stroke-width:6.104;stroke-linecap:round;stroke-linejoin:bevel;stroke-miterlimit:0;stroke-dasharray:none;stroke-opacity:1;paint-order:markers stroke fill"
       d="m 94.063184,95.302828 c 0.160488,0.03665 0.03242,0.0049 0.03242,0.0049"
       id="path22"
       sodipodi:nodetypes="cc"
       inkscape:label="path12" /></g></svg>
